# xmcd
#
# Track frame offsets:
#	150
#	13675
#	25575
#	80475
#	116537
#	127525
#	141425
#	153325
#	162537
#	175687
#	188337
#	202837
#	224837
#	236550
#
# Disc length: 3311
#
# Revision: 2
# Processed by: cddbd v1.5.1PL0 Copyright (c) Steve Scherf et al.
# Submitted via: EasyCDDAExtractor 4.6.9.1
# Normalized: r0:DSETVAR1,TSWAP
#
DISCID=af0ced0e
DTITLE=Various Artist - King of Swing
DYEAR=1999
DGENRE=Swing
TTITLE0=Glenn Miller Orchestra - Pennsylvania
TTITLE1=Tony Bennet - Put on a happy face
TTITLE2=Benny Goodman - Sing Sing Sing (with a Swing)
TTITLE3=Duke Ellington and Betty Roche - Take the "A"-Train
TTITLE4=Ray Conniff - S'Wonderful
TTITLE5=Louis Armstrong - I got rhythm
TTITLE6=Doris Day - Singin' in the Rain
TTITLE7=Buddy Greco - Come Rain or Come Shine
TTITLE8=Andy Williams - Hello Dolly
TTITLE9=Mel Tormé - Walk on by
TTITLE10=Les Brown - Just a gigolo
TTITLE11=Dave Brubeck - Night and Day
TTITLE12=Sarah Vaughan - Nice work if You can get it
TTITLE13=Mel Tormé - Strangers in the night
EXTD=
EXTT0=
EXTT1=
EXTT2=
EXTT3=
EXTT4=
EXTT5=
EXTT6=
EXTT7=
EXTT8=
EXTT9=
EXTT10=
EXTT11=
EXTT12=
EXTT13=
PLAYORDER=
